<?xml version="1.0" encoding="utf-8"?>
<svg xmlns="http://www.w3.org/2000/svg" version="1.1" x="0px" y="0px" viewBox="0.796 11.703 97.408 77.137" style="enable-background:new 0 0 100 100;">
  <path d="M 12.24 79.289 C 18.83 76.629 25.27 73.599 31.5 70.179 C 43.7 63.469 55.16 55.379 65.52 46.079 C 75.88 36.779 85.18 26.329 93.14 14.909 C 93.46 14.459 94.21 13.769 94.75 14.349 C 95.26 14.899 94.91 15.989 94.54 16.519 C 89.96 23.089 84.95 29.369 79.56 35.289 C 69.97 45.809 59.15 55.229 47.43 63.289 C 37.34 70.229 26.56 76.159 15.29 80.969 C 19.73 80.179 24.19 79.599 28.71 79.529 C 30.19 79.509 29.17 82.679 27.87 82.699 C 20.47 82.819 13.21 84.309 5.99 85.839 C 4.4 86.179 5.08 83.799 5.68 83.179 C 9.78 78.939 14 74.619 16.68 69.289 C 16.94 68.779 17.58 67.849 18.29 68.169 C 18.97 68.469 18.78 69.589 18.52 70.109 C 16.83 73.469 14.65 76.459 12.24 79.289 Z" style="transform-box: fill-box; transform-origin: 50% 50%;" transform="matrix(0.258819, 0.965926, -0.965926, 0.258819, 0.000002, -0.000003)"/>
</svg>